<svg xmlns="http://www.w3.org/2000/svg" xmlns:xlink="http://www.w3.org/1999/xlink" version="1.1" x="0px" y="0px" viewBox="0 0 100 125" enable-background="new 0 0 100 100" xml:space="preserve"><g><path stroke="#FF004F" d="M56.511,72.991h-13.02c-0.472,0-0.916-0.222-1.199-0.6c-0.284-0.377-0.373-0.866-0.241-1.319l3.788-13.024   c-1.096-1.094-1.727-2.586-1.727-4.167c0-3.247,2.641-5.889,5.887-5.889c3.248,0,5.891,2.642,5.891,5.889   c0,1.58-0.631,3.071-1.727,4.166l3.788,13.024c0.132,0.453,0.043,0.942-0.241,1.319C57.427,72.769,56.982,72.991,56.511,72.991z    M45.489,69.991h9.023l-3.505-12.048c-0.182-0.626,0.062-1.299,0.603-1.663c0.801-0.54,1.279-1.436,1.279-2.398   c0-1.593-1.297-2.889-2.891-2.889c-1.592,0-2.887,1.296-2.887,2.889c0,0.963,0.478,1.86,1.278,2.397   c0.542,0.364,0.786,1.037,0.604,1.664L45.489,69.991z"/><path stroke="#FF004F" d="M49.999,93.508c-0.228,0-0.455-0.052-0.665-0.156c-25.347-12.54-23.816-47.488-23.739-48.97   c0.024-0.458,0.256-0.879,0.629-1.144c0.332-0.235,8.289-5.763,23.775-5.763c15.488,0,23.445,5.527,23.777,5.763   c0.373,0.265,0.604,0.687,0.629,1.144c0.077,1.482,1.607,36.43-23.741,48.97C50.454,93.456,50.227,93.508,49.999,93.508z    M28.571,45.306c-0.068,5.095,0.495,34.066,21.428,45.019C70.934,79.373,71.497,50.4,71.429,45.306   c-2.059-1.198-9.303-4.831-21.43-4.831C37.877,40.475,30.634,44.105,28.571,45.306z"/><path stroke="#FF004F" d="M30.896,44.05c-0.289,0-0.576-0.083-0.824-0.247c-0.422-0.277-0.676-0.748-0.676-1.253v-7.292   c0-10.96,9.243-19.877,20.605-19.877c11.36,0,20.604,8.917,20.604,19.877v7.168c0,0.502-0.252,0.971-0.67,1.25   c-0.42,0.277-0.95,0.327-1.411,0.133c-1.755-0.737-3.716-1.374-5.829-1.892c-0.671-0.165-1.143-0.766-1.143-1.457v-5.202   c0-6.095-5.182-11.054-11.551-11.054c-6.37,0-11.553,4.959-11.553,11.054v5.274c0,0.687-0.467,1.287-1.133,1.455   c-2.116,0.533-4.076,1.187-5.826,1.94C31.299,44.009,31.097,44.05,30.896,44.05z M50.001,18.381   c-9.708,0-17.605,7.571-17.605,16.877v5.089c0.976-0.351,1.995-0.675,3.053-0.969v-4.12c0-7.75,6.528-14.054,14.553-14.054   c8.023,0,14.551,6.305,14.551,14.054v4.04c1.058,0.287,2.077,0.602,3.053,0.945v-4.985C67.604,25.952,59.708,18.381,50.001,18.381z   "/></g></svg>