<svg xmlns="http://www.w3.org/2000/svg" width="1440" height="900"><path d="M755,448L667,441L780,541Z" fill="#ff938f" stroke="#ff938f" stroke-width="1.51"/><path d="M667,441L667,584L780,541Z" fill="#ff918d" stroke="#ff918d" stroke-width="1.51"/><path d="M667,441L565,547L667,584Z" fill="#ff9590" stroke="#ff9590" stroke-width="1.51"/><path d="M667,441L567,426L565,547Z" fill="#ff9a94" stroke="#ff9a94" stroke-width="1.51"/><path d="M644,324L567,426L667,441Z" fill="#ff9e97" stroke="#ff9e97" stroke-width="1.51"/><path d="M667,584L791,652L780,541Z" fill="#ff8a88" stroke="#ff8a88" stroke-width="1.51"/><path d="M657,678L791,652L667,584Z" fill="#ff8887" stroke="#ff8887" stroke-width="1.51"/><path d="M565,547L657,678L667,584Z" fill="#ff8f8c" stroke="#ff8f8c" stroke-width="1.51"/><path d="M755,448L644,324L667,441Z" fill="#ff9b94" stroke="#ff9b94" stroke-width="1.51"/><path d="M755,448L775,304L644,324Z" fill="#ff9c96" stroke="#ff9c96" stroke-width="1.51"/><path d="M875,305L775,304L755,448Z" fill="#ff9993" stroke="#ff9993" stroke-width="1.51"/><path d="M919,454L755,448L780,541Z" fill="#ff8f8c" stroke="#ff8f8c" stroke-width="1.51"/><path d="M924,597L919,454L780,541Z" fill="#ff8886" stroke="#ff8886" stroke-width="1.51"/><path d="M440,550L551,712L565,547Z" fill="#ff9590" stroke="#ff9590" stroke-width="1.51"/><path d="M644,324L565,332L567,426Z" fill="#ffa29b" stroke="#ffa29b" stroke-width="1.51"/><path d="M520,250L565,332L632,199Z" fill="#ffaaa1" stroke="#ffaaa1" stroke-width="1.51"/><path d="M791,652L924,597L780,541Z" fill="#ff8585" stroke="#ff8585" stroke-width="1.51"/><path d="M791,652L870,684L924,597Z" fill="#ff8081" stroke="#ff8081" stroke-width="1.51"/><path d="M785,793L870,684L791,652Z" fill="#ff7d7f" stroke="#ff7d7f" stroke-width="1.51"/><path d="M565,547L551,712L657,678Z" fill="#ff8e8b" stroke="#ff8e8b" stroke-width="1.51"/><path d="M657,678L785,793L791,652Z" fill="#ff8182" stroke="#ff8182" stroke-width="1.51"/><path d="M451,440L565,547L567,426Z" fill="#ff9e97" stroke="#ff9e97" stroke-width="1.51"/><path d="M440,349L451,440L567,426Z" fill="#ffa49c" stroke="#ffa49c" stroke-width="1.51"/><path d="M919,454L875,305L755,448Z" fill="#ff928e" stroke="#ff928e" stroke-width="1.51"/><path d="M451,440L440,550L565,547Z" fill="#ff9c96" stroke="#ff9c96" stroke-width="1.51"/><path d="M551,712L660,797L657,678Z" fill="#ff8685" stroke="#ff8685" stroke-width="1.51"/><path d="M660,797L785,793L657,678Z" fill="#ff8081" stroke="#ff8081" stroke-width="1.51"/><path d="M870,684L977,655L924,597Z" fill="#ff7d7f" stroke="#ff7d7f" stroke-width="1.51"/><path d="M1028,545L1016,434L919,454Z" fill="#ff8685" stroke="#ff8685" stroke-width="1.51"/><path d="M996,764L977,655L870,684Z" fill="#ff777b" stroke="#ff777b" stroke-width="1.51"/><path d="M785,793L863,776L870,684Z" fill="#ff787c" stroke="#ff787c" stroke-width="1.51"/><path d="M565,332L440,349L567,426Z" fill="#ffa59d" stroke="#ffa59d" stroke-width="1.51"/><path d="M329,422L338,568L440,550Z" fill="#ffa29b" stroke="#ffa29b" stroke-width="1.51"/><path d="M775,304L632,199L644,324Z" fill="#ffa49c" stroke="#ffa49c" stroke-width="1.51"/><path d="M565,332L520,250L440,349Z" fill="#ffaaa1" stroke="#ffaaa1" stroke-width="1.51"/><path d="M875,305L789,203L775,304Z" fill="#ff9e97" stroke="#ff9e97" stroke-width="1.51"/><path d="M919,454L995,354L875,305Z" fill="#ff918d" stroke="#ff918d" stroke-width="1.51"/><path d="M875,305L897,229L789,203Z" fill="#ff9d97" stroke="#ff9d97" stroke-width="1.51"/><path d="M1028,545L919,454L924,597Z" fill="#ff8383" stroke="#ff8383" stroke-width="1.51"/><path d="M632,199L565,332L644,324Z" fill="#ffa79e" stroke="#ffa79e" stroke-width="1.51"/><path d="M789,203L632,199L775,304Z" fill="#ffa49c" stroke="#ffa49c" stroke-width="1.51"/><path d="M977,655L1028,545L924,597Z" fill="#ff7d7f" stroke="#ff7d7f" stroke-width="1.51"/><path d="M1016,434L995,354L919,454Z" fill="#ff8b89" stroke="#ff8b89" stroke-width="1.51"/><path d="M995,354L897,229L875,305Z" fill="#ff9692" stroke="#ff9692" stroke-width="1.51"/><path d="M551,712L538,810L660,797Z" fill="#ff8484" stroke="#ff8484" stroke-width="1.51"/><path d="M660,797L653,884L785,793Z" fill="#ff7b7e" stroke="#ff7b7e" stroke-width="1.51"/><path d="M459,770L538,810L551,712Z" fill="#ff8988" stroke="#ff8988" stroke-width="1.51"/><path d="M399,698L459,770L551,712Z" fill="#ff8e8b" stroke="#ff8e8b" stroke-width="1.51"/><path d="M338,568L399,698L440,550Z" fill="#ff9a95" stroke="#ff9a95" stroke-width="1.51"/><path d="M440,550L399,698L551,712Z" fill="#ff9490" stroke="#ff9490" stroke-width="1.51"/><path d="M329,422L440,550L451,440Z" fill="#ffa49c" stroke="#ffa49c" stroke-width="1.51"/><path d="M520,250L452,239L440,349Z" fill="#ffaea4" stroke="#ffaea4" stroke-width="1.51"/><path d="M449,105L452,239L520,250Z" fill="#ffb4a8" stroke="#ffb4a8" stroke-width="1.51"/><path d="M349,364L451,440L440,349Z" fill="#ffa9a0" stroke="#ffa9a0" stroke-width="1.51"/><path d="M538,810L653,884L660,797Z" fill="#ff7f80" stroke="#ff7f80" stroke-width="1.51"/><path d="M785,793L892,902L863,776Z" fill="#ff7278" stroke="#ff7278" stroke-width="1.51"/><path d="M539,906L653,884L538,810Z" fill="#ff7e80" stroke="#ff7e80" stroke-width="1.51"/><path d="M977,655L1103,578L1028,545Z" fill="#ff7a7d" stroke="#ff7a7d" stroke-width="1.51"/><path d="M863,776L996,764L870,684Z" fill="#ff757a" stroke="#ff757a" stroke-width="1.51"/><path d="M974,897L996,764L863,776Z" fill="#ff6d75" stroke="#ff6d75" stroke-width="1.51"/><path d="M452,239L349,364L440,349Z" fill="#ffaea4" stroke="#ffaea4" stroke-width="1.51"/><path d="M349,364L329,422L451,440Z" fill="#ffaaa1" stroke="#ffaaa1" stroke-width="1.51"/><path d="M1028,545L1125,457L1016,434Z" fill="#ff8283" stroke="#ff8283" stroke-width="1.51"/><path d="M1016,434L1100,309L995,354Z" fill="#ff8c89" stroke="#ff8c89" stroke-width="1.51"/><path d="M1134,697L1103,578L977,655Z" fill="#ff7479" stroke="#ff7479" stroke-width="1.51"/><path d="M632,199L581,92L520,250Z" fill="#ffb0a5" stroke="#ffb0a5" stroke-width="1.51"/><path d="M789,108L631,111L632,199Z" fill="#ffada4" stroke="#ffada4" stroke-width="1.51"/><path d="M789,108L632,199L789,203Z" fill="#ffa9a0" stroke="#ffa9a0" stroke-width="1.51"/><path d="M308,787L330,677L188,767Z" fill="#ff9691" stroke="#ff9691" stroke-width="1.51"/><path d="M338,568L330,677L399,698Z" fill="#ff9a94" stroke="#ff9a94" stroke-width="1.51"/><path d="M399,698L308,787L459,770Z" fill="#ff908d" stroke="#ff908d" stroke-width="1.51"/><path d="M887,81L789,108L789,203Z" fill="#ffa79f" stroke="#ffa79f" stroke-width="1.51"/><path d="M1103,578L1125,457L1028,545Z" fill="#ff7d7f" stroke="#ff7d7f" stroke-width="1.51"/><path d="M995,354L1036,192L897,229Z" fill="#ff9792" stroke="#ff9792" stroke-width="1.51"/><path d="M897,229L887,81L789,203Z" fill="#ffa39b" stroke="#ffa39b" stroke-width="1.51"/><path d="M416,944L539,906L459,770Z" fill="#ff8383" stroke="#ff8383" stroke-width="1.51"/><path d="M459,770L539,906L538,810Z" fill="#ff8484" stroke="#ff8484" stroke-width="1.51"/><path d="M754,944L892,902L785,793Z" fill="#ff7076" stroke="#ff7076" stroke-width="1.51"/><path d="M754,944L785,793L653,884Z" fill="#ff757a" stroke="#ff757a" stroke-width="1.51"/><path d="M681,1002L754,944L653,884Z" fill="#ff7177" stroke="#ff7177" stroke-width="1.51"/><path d="M631,111L581,92L632,199Z" fill="#ffb1a7" stroke="#ffb1a7" stroke-width="1.51"/><path d="M661,5L581,92L631,111Z" fill="#ffb5aa" stroke="#ffb5aa" stroke-width="1.51"/><path d="M1125,457L1100,309L1016,434Z" fill="#ff8786" stroke="#ff8786" stroke-width="1.51"/><path d="M1100,309L1036,192L995,354Z" fill="#ff928e" stroke="#ff928e" stroke-width="1.51"/><path d="M789,108L661,5L631,111Z" fill="#ffb1a7" stroke="#ffb1a7" stroke-width="1.51"/><path d="M1026,110L887,81L897,229Z" fill="#ffa19a" stroke="#ffa19a" stroke-width="1.51"/><path d="M996,764L1134,697L977,655Z" fill="#ff7177" stroke="#ff7177" stroke-width="1.51"/><path d="M1233,546L1217,463L1125,457Z" fill="#ff7a7d" stroke="#ff7a7d" stroke-width="1.51"/><path d="M1139,826L1134,697L996,764Z" fill="#ff6972" stroke="#ff6972" stroke-width="1.51"/><path d="M892,902L974,897L863,776Z" fill="#ff6c74" stroke="#ff6c74" stroke-width="1.51"/><path d="M913,1030L974,897L892,902Z" fill="#ff636f" stroke="#ff636f" stroke-width="1.51"/><path d="M581,92L449,105L520,250Z" fill="#ffb5aa" stroke="#ffb5aa" stroke-width="1.51"/><path d="M452,239L293,241L349,364Z" fill="#ffb3a8" stroke="#ffb3a8" stroke-width="1.51"/><path d="M330,677L308,787L399,698Z" fill="#ff9590" stroke="#ff9590" stroke-width="1.51"/><path d="M210,647L330,677L338,568Z" fill="#ff9e97" stroke="#ff9e97" stroke-width="1.51"/><path d="M754,944L808,1055L892,902Z" fill="#ff6871" stroke="#ff6871" stroke-width="1.51"/><path d="M539,906L681,1002L653,884Z" fill="#ff767a" stroke="#ff767a" stroke-width="1.51"/><path d="M523,1058L681,1002L539,906Z" fill="#ff7479" stroke="#ff7479" stroke-width="1.51"/><path d="M349,364L228,305L329,422Z" fill="#ffb0a6" stroke="#ffb0a6" stroke-width="1.51"/><path d="M174,579L210,647L338,568Z" fill="#ffa39b" stroke="#ffa39b" stroke-width="1.51"/><path d="M297,110L293,241L452,239Z" fill="#ffbaad" stroke="#ffbaad" stroke-width="1.51"/><path d="M1036,192L1026,110L897,229Z" fill="#ff9c96" stroke="#ff9c96" stroke-width="1.51"/><path d="M1100,309L1121,223L1036,192Z" fill="#ff928f" stroke="#ff928f" stroke-width="1.51"/><path d="M1267,323L1121,223L1100,309Z" fill="#ff8b89" stroke="#ff8b89" stroke-width="1.51"/><path d="M1217,463L1100,309L1125,457Z" fill="#ff8383" stroke="#ff8383" stroke-width="1.51"/><path d="M787,-28L661,5L789,108Z" fill="#ffb2a8" stroke="#ffb2a8" stroke-width="1.51"/><path d="M581,92L555,14L449,105Z" fill="#ffb9ae" stroke="#ffb9ae" stroke-width="1.51"/><path d="M1148,92L1026,110L1036,192Z" fill="#ff9b95" stroke="#ff9b95" stroke-width="1.51"/><path d="M887,81L787,-28L789,108Z" fill="#ffada3" stroke="#ffada3" stroke-width="1.51"/><path d="M1233,546L1125,457L1103,578Z" fill="#ff797d" stroke="#ff797d" stroke-width="1.51"/><path d="M187,416L338,568L329,422Z" fill="#ffa9a1" stroke="#ffa9a1" stroke-width="1.51"/><path d="M661,5L555,14L581,92Z" fill="#ffb9ad" stroke="#ffb9ad" stroke-width="1.51"/><path d="M293,241L228,305L349,364Z" fill="#ffb5a9" stroke="#ffb5a9" stroke-width="1.51"/><path d="M308,787L416,944L459,770Z" fill="#ff8a88" stroke="#ff8a88" stroke-width="1.51"/><path d="M293,886L416,944L308,787Z" fill="#ff8988" stroke="#ff8988" stroke-width="1.51"/><path d="M228,305L187,416L329,422Z" fill="#ffb1a7" stroke="#ffb1a7" stroke-width="1.51"/><path d="M1215,695L1233,546L1103,578Z" fill="#ff7177" stroke="#ff7177" stroke-width="1.51"/><path d="M1134,697L1215,695L1103,578Z" fill="#ff6f76" stroke="#ff6f76" stroke-width="1.51"/><path d="M974,897L1139,826L996,764Z" fill="#ff6770" stroke="#ff6770" stroke-width="1.51"/><path d="M187,416L174,579L338,568Z" fill="#ffa8a0" stroke="#ffa8a0" stroke-width="1.51"/><path d="M1139,826L1215,695L1134,697Z" fill="#ff6771" stroke="#ff6771" stroke-width="1.51"/><path d="M566,-154L435,-5L555,14Z" fill="#ffc2b5" stroke="#ffc2b5" stroke-width="1.51"/><path d="M905,-19L787,-28L887,81Z" fill="#ffada4" stroke="#ffada4" stroke-width="1.51"/><path d="M974,897L1152,885L1139,826Z" fill="#ff606d" stroke="#ff606d" stroke-width="1.51"/><path d="M681,1002L808,1055L754,944Z" fill="#ff6a72" stroke="#ff6a72" stroke-width="1.51"/><path d="M523,1058L808,1055L681,1002Z" fill="#ff6b73" stroke="#ff6b73" stroke-width="1.51"/><path d="M188,767L330,677L210,647Z" fill="#ff9b95" stroke="#ff9b95" stroke-width="1.51"/><path d="M188,767L293,886L308,787Z" fill="#ff928e" stroke="#ff928e" stroke-width="1.51"/><path d="M808,1055L913,1030L892,902Z" fill="#ff626e" stroke="#ff626e" stroke-width="1.51"/><path d="M996,-37L905,-19L887,81Z" fill="#ffaba1" stroke="#ffaba1" stroke-width="1.51"/><path d="M71,361L72,429L187,416Z" fill="#ffb6ab" stroke="#ffb6ab" stroke-width="1.51"/><path d="M293,241L204,207L228,305Z" fill="#ffbbae" stroke="#ffbbae" stroke-width="1.51"/><path d="M449,105L297,110L452,239Z" fill="#ffbaae" stroke="#ffbaae" stroke-width="1.51"/><path d="M341,16L297,110L449,105Z" fill="#ffc1b4" stroke="#ffc1b4" stroke-width="1.51"/><path d="M416,944L523,1058L539,906Z" fill="#ff7a7d" stroke="#ff7a7d" stroke-width="1.51"/><path d="M434,1057L523,1058L416,944Z" fill="#ff787c" stroke="#ff787c" stroke-width="1.51"/><path d="M106,661L188,767L210,647Z" fill="#ff9f99" stroke="#ff9f99" stroke-width="1.51"/><path d="M1139,826L1267,797L1215,695Z" fill="#ff616d" stroke="#ff616d" stroke-width="1.51"/><path d="M1105,1051L1152,885L974,897Z" fill="#ff5a69" stroke="#ff5a69" stroke-width="1.51"/><path d="M555,14L435,-5L449,105Z" fill="#ffbeb1" stroke="#ffbeb1" stroke-width="1.51"/><path d="M690,-97L555,14L661,5Z" fill="#ffbbaf" stroke="#ffbbaf" stroke-width="1.51"/><path d="M297,110L204,207L293,241Z" fill="#ffbeb1" stroke="#ffbeb1" stroke-width="1.51"/><path d="M1217,463L1267,323L1100,309Z" fill="#ff8484" stroke="#ff8484" stroke-width="1.51"/><path d="M1121,223L1148,92L1036,192Z" fill="#ff9792" stroke="#ff9792" stroke-width="1.51"/><path d="M1026,110L996,-37L887,81Z" fill="#ffa69d" stroke="#ffa69d" stroke-width="1.51"/><path d="M1342,301L1267,323L1386,473Z" fill="#ff7d7e" stroke="#ff7d7e" stroke-width="1.51"/><path d="M1267,323L1217,463L1386,473Z" fill="#ff7a7d" stroke="#ff7a7d" stroke-width="1.51"/><path d="M913,1030L994,1038L974,897Z" fill="#ff5e6b" stroke="#ff5e6b" stroke-width="1.51"/><path d="M808,1055L994,1038L913,1030Z" fill="#ff5d6a" stroke="#ff5d6a" stroke-width="1.51"/><path d="M787,-28L690,-97L661,5Z" fill="#ffb8ad" stroke="#ffb8ad" stroke-width="1.51"/><path d="M757,-127L690,-97L787,-28Z" fill="#ffbaae" stroke="#ffbaae" stroke-width="1.51"/><path d="M1267,106L1148,92L1121,223Z" fill="#ff9591" stroke="#ff9591" stroke-width="1.51"/><path d="M290,1039L416,944L293,886Z" fill="#ff8484" stroke="#ff8484" stroke-width="1.51"/><path d="M290,1039L434,1057L416,944Z" fill="#ff7d7f" stroke="#ff7d7f" stroke-width="1.51"/><path d="M174,579L106,661L210,647Z" fill="#ffa49c" stroke="#ffa49c" stroke-width="1.51"/><path d="M187,416L97,560L174,579Z" fill="#ffada3" stroke="#ffada3" stroke-width="1.51"/><path d="M72,429L97,560L187,416Z" fill="#ffb1a7" stroke="#ffb1a7" stroke-width="1.51"/><path d="M435,-5L341,16L449,105Z" fill="#ffc2b4" stroke="#ffc2b4" stroke-width="1.51"/><path d="M297,110L218,101L204,207Z" fill="#ffc3b5" stroke="#ffc3b5" stroke-width="1.51"/><path d="M326,-114L341,16L435,-5Z" fill="#ffc8ba" stroke="#ffc8ba" stroke-width="1.51"/><path d="M97,560L106,661L174,579Z" fill="#ffa89f" stroke="#ffa89f" stroke-width="1.51"/><path d="M903,-122L757,-127L787,-28Z" fill="#ffb7ac" stroke="#ffb7ac" stroke-width="1.51"/><path d="M1091,2L996,-37L1026,110Z" fill="#ffa49c" stroke="#ffa49c" stroke-width="1.51"/><path d="M1267,323L1270,248L1121,223Z" fill="#ff8a88" stroke="#ff8a88" stroke-width="1.51"/><path d="M1152,885L1267,797L1139,826Z" fill="#ff5d6b" stroke="#ff5d6b" stroke-width="1.51"/><path d="M1215,695L1374,594L1233,546Z" fill="#ff6b73" stroke="#ff6b73" stroke-width="1.51"/><path d="M1267,323L1342,301L1270,248Z" fill="#ff8484" stroke="#ff8484" stroke-width="1.51"/><path d="M1324,786L1267,797L1366,909Z" fill="#ff5566" stroke="#ff5566" stroke-width="1.51"/><path d="M188,767L203,901L293,886Z" fill="#ff918d" stroke="#ff918d" stroke-width="1.51"/><path d="M94,813L203,901L188,767Z" fill="#ff9692" stroke="#ff9692" stroke-width="1.51"/><path d="M71,361L187,416L228,305Z" fill="#ffb7ac" stroke="#ffb7ac" stroke-width="1.51"/><path d="M233,10L218,101L297,110Z" fill="#ffc7b9" stroke="#ffc7b9" stroke-width="1.51"/><path d="M1218,-38L1091,2L1148,92Z" fill="#ff9f98" stroke="#ff9f98" stroke-width="1.51"/><path d="M1148,92L1091,2L1026,110Z" fill="#ff9f98" stroke="#ff9f98" stroke-width="1.51"/><path d="M71,361L228,305L98,247Z" fill="#ffbcb0" stroke="#ffbcb0" stroke-width="1.51"/><path d="M4,784L94,813L106,661Z" fill="#ff9f99" stroke="#ff9f99" stroke-width="1.51"/><path d="M690,-97L566,-154L555,14Z" fill="#ffc0b4" stroke="#ffc0b4" stroke-width="1.51"/><path d="M903,-122L787,-28L905,-19Z" fill="#ffb2a8" stroke="#ffb2a8" stroke-width="1.51"/><path d="M98,247L228,305L204,207Z" fill="#ffbdb1" stroke="#ffbdb1" stroke-width="1.51"/><path d="M115,78L98,247L204,207Z" fill="#ffc5b7" stroke="#ffc5b7" stroke-width="1.51"/><path d="M996,-37L903,-122L905,-19Z" fill="#ffafa5" stroke="#ffafa5" stroke-width="1.51"/><path d="M1002,-159L903,-122L996,-37Z" fill="#ffb1a6" stroke="#ffb1a6" stroke-width="1.51"/><path d="M1386,473L1217,463L1233,546Z" fill="#ff757a" stroke="#ff757a" stroke-width="1.51"/><path d="M1270,248L1267,106L1121,223Z" fill="#ff8f8c" stroke="#ff8f8c" stroke-width="1.51"/><path d="M994,1038L1105,1051L974,897Z" fill="#ff5969" stroke="#ff5969" stroke-width="1.51"/><path d="M808,1055L1105,1051L994,1038Z" fill="#ff5767" stroke="#ff5767" stroke-width="1.51"/><path d="M203,901L290,1039L293,886Z" fill="#ff8988" stroke="#ff8988" stroke-width="1.51"/><path d="M1368,697L1374,594L1215,695Z" fill="#ff646f" stroke="#ff646f" stroke-width="1.51"/><path d="M1267,797L1324,786L1215,695Z" fill="#ff5f6c" stroke="#ff5f6c" stroke-width="1.51"/><path d="M1244,926L1267,797L1152,885Z" fill="#ff5868" stroke="#ff5868" stroke-width="1.51"/><path d="M341,16L233,10L297,110Z" fill="#ffc7b8" stroke="#ffc7b8" stroke-width="1.51"/><path d="M757,-127L566,-154L690,-97Z" fill="#ffc0b3" stroke="#ffc0b3" stroke-width="1.51"/><path d="M1002,-159L566,-154L757,-127Z" fill="#ffbcb1" stroke="#ffbcb1" stroke-width="1.51"/><path d="M1105,1051L1244,926L1152,885Z" fill="#ff5366" stroke="#ff5366" stroke-width="1.51"/><path d="M1374,594L1386,473L1233,546Z" fill="#ff6f75" stroke="#ff6f75" stroke-width="1.51"/><path d="M203,901L171,1016L290,1039Z" fill="#ff8787" stroke="#ff8787" stroke-width="1.51"/><path d="M106,661L94,813L188,767Z" fill="#ff9d97" stroke="#ff9d97" stroke-width="1.51"/><path d="M-14,654L106,661L97,560Z" fill="#ffa9a0" stroke="#ffa9a0" stroke-width="1.51"/><path d="M1374,594L1456,585L1386,473Z" fill="#ff6972" stroke="#ff6972" stroke-width="1.51"/><path d="M1324,786L1368,697L1215,695Z" fill="#ff606c" stroke="#ff606c" stroke-width="1.51"/><path d="M218,101L115,78L204,207Z" fill="#ffc6b8" stroke="#ffc6b8" stroke-width="1.51"/><path d="M326,-114L233,10L341,16Z" fill="#ffcbbd" stroke="#ffcbbd" stroke-width="1.51"/><path d="M1144,-109L1002,-159L996,-37Z" fill="#ffaca3" stroke="#ffaca3" stroke-width="1.51"/><path d="M1359,235L1267,106L1270,248Z" fill="#ff8b8a" stroke="#ff8b8a" stroke-width="1.51"/><path d="M566,-154L428,-134L435,-5Z" fill="#ffc7ba" stroke="#ffc7ba" stroke-width="1.51"/><path d="M1492,345L1359,235L1342,301Z" fill="#ff7f80" stroke="#ff7f80" stroke-width="1.51"/><path d="M1342,301L1359,235L1270,248Z" fill="#ff8585" stroke="#ff8585" stroke-width="1.51"/><path d="M72,429L-10,438L97,560Z" fill="#ffb4a9" stroke="#ffb4a9" stroke-width="1.51"/><path d="M71,361L-10,438L72,429Z" fill="#ffb9ad" stroke="#ffb9ad" stroke-width="1.51"/><path d="M-31,363L-10,438L71,361Z" fill="#ffbcb0" stroke="#ffbcb0" stroke-width="1.51"/><path d="M94,813L104,906L203,901Z" fill="#ff9490" stroke="#ff9490" stroke-width="1.51"/><path d="M4,784L104,906L94,813Z" fill="#ff9a95" stroke="#ff9a95" stroke-width="1.51"/><path d="M428,-134L326,-114L435,-5Z" fill="#ffcabc" stroke="#ffcabc" stroke-width="1.51"/><path d="M-10,438L-23,582L97,560Z" fill="#ffb2a8" stroke="#ffb2a8" stroke-width="1.51"/><path d="M-18,230L-31,363L71,361Z" fill="#ffc1b4" stroke="#ffc1b4" stroke-width="1.51"/><path d="M233,10L115,78L218,101Z" fill="#ffcabb" stroke="#ffcabb" stroke-width="1.51"/><path d="M53,-23L115,78L233,10Z" fill="#ffcfc0" stroke="#ffcfc0" stroke-width="1.51"/><path d="M903,-122L1002,-159L757,-127Z" fill="#ffb6ab" stroke="#ffb6ab" stroke-width="1.51"/><path d="M1144,-109L996,-37L1091,2Z" fill="#ffa79f" stroke="#ffa79f" stroke-width="1.51"/><path d="M-23,582L-14,654L97,560Z" fill="#ffada4" stroke="#ffada4" stroke-width="1.51"/><path d="M104,906L171,1016L203,901Z" fill="#ff8e8b" stroke="#ff8e8b" stroke-width="1.51"/><path d="M1368,697L1441,650L1374,594Z" fill="#ff616e" stroke="#ff616e" stroke-width="1.51"/><path d="M1386,473L1469,422L1342,301Z" fill="#ff767a" stroke="#ff767a" stroke-width="1.51"/><path d="M1472,799L1441,650L1368,697Z" fill="#ff5969" stroke="#ff5969" stroke-width="1.51"/><path d="M1472,799L1368,697L1324,786Z" fill="#ff5768" stroke="#ff5768" stroke-width="1.51"/><path d="M1267,106L1218,-38L1148,92Z" fill="#ff9a94" stroke="#ff9a94" stroke-width="1.51"/><path d="M1327,-40L1218,-38L1267,106Z" fill="#ff9a94" stroke="#ff9a94" stroke-width="1.51"/><path d="M-124,460L-115,589L-23,582Z" fill="#ffb6ab" stroke="#ffb6ab" stroke-width="1.51"/><path d="M-18,230L71,361L98,247Z" fill="#ffc2b4" stroke="#ffc2b4" stroke-width="1.51"/><path d="M-14,654L4,784L106,661Z" fill="#ffa59d" stroke="#ffa59d" stroke-width="1.51"/><path d="M104,906L106,1031L171,1016Z" fill="#ff8c8a" stroke="#ff8c8a" stroke-width="1.51"/><path d="M1441,650L1456,585L1374,594Z" fill="#ff636f" stroke="#ff636f" stroke-width="1.51"/><path d="M1244,926L1366,909L1267,797Z" fill="#ff5265" stroke="#ff5265" stroke-width="1.51"/><path d="M1105,1051L1230,1059L1244,926Z" fill="#ff4b62" stroke="#ff4b62" stroke-width="1.51"/><path d="M808,1055L1230,1059L1105,1051Z" fill="#ff5165" stroke="#ff5165" stroke-width="1.51"/><path d="M523,1058L1230,1059L808,1055Z" fill="#ff5e6c" stroke="#ff5e6c" stroke-width="1.51"/><path d="M1218,-38L1144,-109L1091,2Z" fill="#ffa49c" stroke="#ffa49c" stroke-width="1.51"/><path d="M1456,585L1469,422L1386,473Z" fill="#ff6c74" stroke="#ff6c74" stroke-width="1.51"/><path d="M1359,235L1379,95L1267,106Z" fill="#ff8d8a" stroke="#ff8d8a" stroke-width="1.51"/><path d="M1337,1026L1366,909L1244,926Z" fill="#ff4860" stroke="#ff4860" stroke-width="1.51"/><path d="M-20,122L-18,230L98,247Z" fill="#ffc9ba" stroke="#ffc9ba" stroke-width="1.51"/><path d="M1218,-38L1261,-114L1144,-109Z" fill="#ffa39c" stroke="#ffa39c" stroke-width="1.51"/><path d="M1479,206L1379,95L1359,235Z" fill="#ff8786" stroke="#ff8786" stroke-width="1.51"/><path d="M-22,1046L106,1031L104,906Z" fill="#ff8f8c" stroke="#ff8f8c" stroke-width="1.51"/><path d="M171,1016L106,1031L290,1039Z" fill="#ff8685" stroke="#ff8685" stroke-width="1.51"/><path d="M290,1039L-22,1046L434,1057Z" fill="#ff8283" stroke="#ff8283" stroke-width="1.51"/><path d="M1469,422L1492,345L1342,301Z" fill="#ff787b" stroke="#ff787b" stroke-width="1.51"/><path d="M1566,442L1492,345L1469,422Z" fill="#ff7076" stroke="#ff7076" stroke-width="1.51"/><path d="M1230,1059L1337,1026L1244,926Z" fill="#ff4660" stroke="#ff4660" stroke-width="1.51"/><path d="M1451,884L1472,799L1324,786Z" fill="#ff4f63" stroke="#ff4f63" stroke-width="1.51"/><path d="M1456,585L1566,442L1469,422Z" fill="#ff6a72" stroke="#ff6a72" stroke-width="1.51"/><path d="M1441,650L1555,668L1456,585Z" fill="#ff5d6b" stroke="#ff5d6b" stroke-width="1.51"/><path d="M1451,884L1324,786L1366,909Z" fill="#ff4d63" stroke="#ff4d63" stroke-width="1.51"/><path d="M115,78L-20,122L98,247Z" fill="#ffcabb" stroke="#ffcabb" stroke-width="1.51"/><path d="M-124,460L-10,438L-31,363Z" fill="#ffbdb1" stroke="#ffbdb1" stroke-width="1.51"/><path d="M53,-23L-20,122L115,78Z" fill="#ffd1c1" stroke="#ffd1c1" stroke-width="1.51"/><path d="M4,784L-64,911L104,906Z" fill="#ff9a95" stroke="#ff9a95" stroke-width="1.51"/><path d="M-14,654L-170,714L4,784Z" fill="#ffa8a0" stroke="#ffa8a0" stroke-width="1.51"/><path d="M-23,582L-115,589L-14,654Z" fill="#ffafa6" stroke="#ffafa6" stroke-width="1.51"/><path d="M-124,460L-23,582L-10,438Z" fill="#ffb7ac" stroke="#ffb7ac" stroke-width="1.51"/><path d="M-124,460L-31,363L-123,355Z" fill="#ffc0b4" stroke="#ffc0b4" stroke-width="1.51"/><path d="M326,-114L215,-156L233,10Z" fill="#ffd1c1" stroke="#ffd1c1" stroke-width="1.51"/><path d="M428,-134L215,-156L326,-114Z" fill="#ffd1c2" stroke="#ffd1c2" stroke-width="1.51"/><path d="M566,-154L215,-156L428,-134Z" fill="#ffcebf" stroke="#ffcebf" stroke-width="1.51"/><path d="M1002,-159L215,-156L566,-154Z" fill="#ffc5b9" stroke="#ffc5b9" stroke-width="1.51"/><path d="M1379,95L1327,-40L1267,106Z" fill="#ff9490" stroke="#ff9490" stroke-width="1.51"/><path d="M1324,-117L1327,-40L1484,-137Z" fill="#ff9c96" stroke="#ff9c96" stroke-width="1.51"/><path d="M-123,355L-31,363L-131,242Z" fill="#ffc5b8" stroke="#ffc5b8" stroke-width="1.51"/><path d="M1492,345L1479,206L1359,235Z" fill="#ff7e80" stroke="#ff7e80" stroke-width="1.51"/><path d="M1483,1039L1451,884L1366,909Z" fill="#ff405d" stroke="#ff405d" stroke-width="1.51"/><path d="M1327,-40L1261,-114L1218,-38Z" fill="#ff9f99" stroke="#ff9f99" stroke-width="1.51"/><path d="M1144,-109L1261,-114L1002,-159Z" fill="#ffaaa1" stroke="#ffaaa1" stroke-width="1.51"/><path d="M-131,242L-31,363L-18,230Z" fill="#ffc7b9" stroke="#ffc7b9" stroke-width="1.51"/><path d="M215,-156L53,-23L233,10Z" fill="#ffd3c3" stroke="#ffd3c3" stroke-width="1.51"/><path d="M1492,345L1585,305L1479,206Z" fill="#ff797c" stroke="#ff797c" stroke-width="1.51"/><path d="M1570,596L1566,442L1456,585Z" fill="#ff636e" stroke="#ff636e" stroke-width="1.51"/><path d="M1555,668L1441,650L1472,799Z" fill="#ff5667" stroke="#ff5667" stroke-width="1.51"/><path d="M1556,797L1555,668L1472,799Z" fill="#ff4e63" stroke="#ff4e63" stroke-width="1.51"/><path d="M-113,908L-64,911L4,784Z" fill="#ff9e97" stroke="#ff9e97" stroke-width="1.51"/><path d="M1555,668L1570,596L1456,585Z" fill="#ff5c6b" stroke="#ff5c6b" stroke-width="1.51"/><path d="M-123,355L-170,714L-124,460Z" fill="#ffbaaf" stroke="#ffbaaf" stroke-width="1.51"/><path d="M-20,122L-131,242L-18,230Z" fill="#ffccbd" stroke="#ffccbd" stroke-width="1.51"/><path d="M-155,98L-131,242L-20,122Z" fill="#ffd1c2" stroke="#ffd1c2" stroke-width="1.51"/><path d="M1327,-40L1324,-117L1261,-114Z" fill="#ff9f99" stroke="#ff9f99" stroke-width="1.51"/><path d="M1261,-114L1324,-117L1002,-159Z" fill="#ffa79f" stroke="#ffa79f" stroke-width="1.51"/><path d="M1481,7L1327,-40L1379,95Z" fill="#ff938f" stroke="#ff938f" stroke-width="1.51"/><path d="M1570,124L1485,82L1479,206Z" fill="#ff8484" stroke="#ff8484" stroke-width="1.51"/><path d="M1479,206L1485,82L1379,95Z" fill="#ff8987" stroke="#ff8987" stroke-width="1.51"/><path d="M1555,668L1615,899L1570,596Z" fill="#ff4e63" stroke="#ff4e63" stroke-width="1.51"/><path d="M1451,884L1556,797L1472,799Z" fill="#ff4861" stroke="#ff4861" stroke-width="1.51"/><path d="M1615,899L1556,797L1451,884Z" fill="#ff415d" stroke="#ff415d" stroke-width="1.51"/><path d="M-115,589L-170,714L-14,654Z" fill="#ffafa5" stroke="#ffafa5" stroke-width="1.51"/><path d="M-124,460L-170,714L-115,589Z" fill="#ffb5aa" stroke="#ffb5aa" stroke-width="1.51"/><path d="M-131,242L-170,714L-123,355Z" fill="#ffc0b3" stroke="#ffc0b3" stroke-width="1.51"/><path d="M1566,442L1585,305L1492,345Z" fill="#ff7177" stroke="#ff7177" stroke-width="1.51"/><path d="M1607,225L1585,305L1566,442Z" fill="#ff7278" stroke="#ff7278" stroke-width="1.51"/><path d="M-64,911L-22,1046L104,906Z" fill="#ff9490" stroke="#ff9490" stroke-width="1.51"/><path d="M106,1031L-22,1046L290,1039Z" fill="#ff8887" stroke="#ff8887" stroke-width="1.51"/><path d="M-144,1028L-22,1046L-64,911Z" fill="#ff9691" stroke="#ff9691" stroke-width="1.51"/><path d="M-177,763L-113,908L4,784Z" fill="#ffa39c" stroke="#ffa39c" stroke-width="1.51"/><path d="M53,-23L-36,-23L-20,122Z" fill="#ffd5c5" stroke="#ffd5c5" stroke-width="1.51"/><path d="M215,-156L64,-137L53,-23Z" fill="#ffd9c9" stroke="#ffd9c9" stroke-width="1.51"/><path d="M64,-137L-36,-23L53,-23Z" fill="#ffdac9" stroke="#ffdac9" stroke-width="1.51"/><path d="M-170,714L-177,763L4,784Z" fill="#ffa8a0" stroke="#ffa8a0" stroke-width="1.51"/><path d="M-179,-30L-177,763L-170,714Z" fill="#ffbeb2" stroke="#ffbeb2" stroke-width="1.51"/><path d="M1485,82L1481,7L1379,95Z" fill="#ff8d8b" stroke="#ff8d8b" stroke-width="1.51"/><path d="M1572,7L1481,7L1485,82Z" fill="#ff8c8a" stroke="#ff8c8a" stroke-width="1.51"/><path d="M1337,1026L1483,1039L1366,909Z" fill="#ff3d5c" stroke="#ff3d5c" stroke-width="1.51"/><path d="M1230,1059L1483,1039L1337,1026Z" fill="#ff3b5b" stroke="#ff3b5b" stroke-width="1.51"/><path d="M1585,305L1607,225L1479,206Z" fill="#ff7a7d" stroke="#ff7a7d" stroke-width="1.51"/><path d="M1570,596L1607,225L1566,442Z" fill="#ff6a72" stroke="#ff6a72" stroke-width="1.51"/><path d="M1615,899L1607,225L1570,596Z" fill="#ff5c6a" stroke="#ff5c6a" stroke-width="1.51"/><path d="M1607,225L1570,124L1479,206Z" fill="#ff7f80" stroke="#ff7f80" stroke-width="1.51"/><path d="M-179,-30L-155,98L-36,-23Z" fill="#ffdccb" stroke="#ffdccb" stroke-width="1.51"/><path d="M-36,-23L-155,98L-20,122Z" fill="#ffd6c6" stroke="#ffd6c6" stroke-width="1.51"/><path d="M-131,242L-155,98L-170,714Z" fill="#ffc6b9" stroke="#ffc6b9" stroke-width="1.51"/><path d="M1483,1039L1615,899L1451,884Z" fill="#ff395a" stroke="#ff395a" stroke-width="1.51"/><path d="M1556,797L1615,899L1555,668Z" fill="#ff4760" stroke="#ff4760" stroke-width="1.51"/><path d="M64,-137L-33,-150L-36,-23Z" fill="#ffdecd" stroke="#ffdecd" stroke-width="1.51"/><path d="M215,-156L-33,-150L64,-137Z" fill="#ffddcc" stroke="#ffddcc" stroke-width="1.51"/><path d="M-113,908L-144,1028L-64,911Z" fill="#ff9a95" stroke="#ff9a95" stroke-width="1.51"/><path d="M-177,763L-144,1028L-113,908Z" fill="#ffa099" stroke="#ffa099" stroke-width="1.51"/><path d="M1570,124L1572,7L1485,82Z" fill="#ff8887" stroke="#ff8887" stroke-width="1.51"/><path d="M1481,7L1484,-137L1327,-40Z" fill="#ff9692" stroke="#ff9692" stroke-width="1.51"/><path d="M1607,225L1572,7L1570,124Z" fill="#ff8382" stroke="#ff8382" stroke-width="1.51"/><path d="M1566,-126L1484,-137L1481,7Z" fill="#ff9590" stroke="#ff9590" stroke-width="1.51"/><path d="M1324,-117L1484,-137L1002,-159Z" fill="#ffa49d" stroke="#ffa49d" stroke-width="1.51"/><path d="M-162,-94L-179,-30L-36,-23Z" fill="#ffe0cf" stroke="#ffe0cf" stroke-width="1.51"/><path d="M-155,98L-179,-30L-170,714Z" fill="#ffcdbe" stroke="#ffcdbe" stroke-width="1.51"/><path d="M1483,1039L1614,1034L1615,899Z" fill="#ff2b56" stroke="#ff2b56" stroke-width="1.51"/><path d="M1230,1059L1614,1034L1483,1039Z" fill="#ff3157" stroke="#ff3157" stroke-width="1.51"/><path d="M-33,-150L-162,-94L-36,-23Z" fill="#ffe1cf" stroke="#ffe1cf" stroke-width="1.51"/><path d="M1572,7L1566,-126L1481,7Z" fill="#ff908d" stroke="#ff908d" stroke-width="1.51"/><path d="M1607,225L1566,-126L1572,7Z" fill="#ff8987" stroke="#ff8987" stroke-width="1.51"/></svg>