<svg xmlns="http://www.w3.org/2000/svg" xmlns:xlink="http://www.w3.org/1999/xlink" version="1.1" x="0px" y="0px" viewBox="0 0 100 125" enable-background="new 0 0 100 100" xml:space="preserve"><g><path d="M56.918,74.034h-13.02c-0.472,0-0.916-0.222-1.199-0.6c-0.284-0.377-0.373-0.866-0.241-1.319l3.788-13.024   c-1.096-1.094-1.727-2.586-1.727-4.167c0-3.247,2.641-5.889,5.887-5.889c3.248,0,5.891,2.642,5.891,5.889   c0,1.58-0.631,3.071-1.727,4.166l3.788,13.024c0.132,0.453,0.043,0.942-0.241,1.319C57.834,73.812,57.39,74.034,56.918,74.034z    M45.896,71.034h9.023l-3.505-12.048c-0.182-0.626,0.062-1.299,0.603-1.663c0.801-0.54,1.279-1.436,1.279-2.398   c0-1.593-1.297-2.889-2.891-2.889c-1.592,0-2.887,1.296-2.887,2.889c0,0.963,0.478,1.86,1.278,2.397   c0.542,0.364,0.786,1.037,0.604,1.664L45.896,71.034z"/><path d="M50.406,94.55c-0.228,0-0.455-0.052-0.665-0.156c-25.347-12.54-23.816-47.488-23.739-48.97   c0.024-0.458,0.256-0.879,0.629-1.144c0.332-0.235,8.289-5.763,23.775-5.763c15.488,0,23.445,5.527,23.777,5.763   c0.373,0.265,0.604,0.687,0.629,1.144c0.077,1.482,1.607,36.43-23.741,48.97C50.861,94.499,50.634,94.55,50.406,94.55z    M28.979,46.344c-0.069,5.083,0.489,34.068,21.428,45.023c20.961-10.965,21.503-39.926,21.431-45.019   c-2.058-1.197-9.302-4.831-21.431-4.831C38.216,41.518,31.026,45.143,28.979,46.344z"/><path d="M31.303,45.092c-0.289,0-0.576-0.083-0.824-0.247c-0.422-0.277-0.676-0.748-0.676-1.253V25.927   c0-10.96,9.243-19.877,20.605-19.877c11.36,0,20.604,8.917,20.604,19.877V37.3c0,0.829-0.672,1.5-1.5,1.5h-6.053   c-0.828,0-1.5-0.671-1.5-1.5V25.927c0-6.095-5.182-11.054-11.551-11.054c-6.37,0-11.553,4.959-11.553,11.054v15.647   c0,0.687-0.467,1.287-1.133,1.455c-2.116,0.533-4.076,1.186-5.826,1.94C31.706,45.052,31.504,45.092,31.303,45.092z M50.408,9.05   c-9.708,0-17.605,7.571-17.605,16.877V41.39c0.976-0.351,1.995-0.675,3.053-0.969V25.927c0-7.75,6.528-14.054,14.553-14.054   c8.023,0,14.551,6.305,14.551,14.054V35.8h3.053v-9.873C68.012,16.621,60.115,9.05,50.408,9.05z"/></g><text x="0" y="115" fill="#000000" font-size="5px" font-weight="bold" font-family="'Helvetica Neue', Helvetica, Arial-Unicode, Arial, Sans-serif">Created by Universal Icons</text><text x="0" y="120" fill="#000000" font-size="5px" font-weight="bold" font-family="'Helvetica Neue', Helvetica, Arial-Unicode, Arial, Sans-serif">from the Noun Project</text></svg>